<svg width="24" height="36" viewBox="0 0 24 36" fill="none" xmlns="http://www.w3.org/2000/svg">
<path d="M17.5415 13.3593H10.942V0.261963H17.5415C21.103 0.261963 24 3.19905 24 6.80988C24 10.4207 21.103 13.3593 17.5415 13.3593ZM13.058 11.214H17.5415C19.9365 11.214 21.8841 9.23801 21.8841 6.81134C21.8841 4.38467 19.935 2.40863 17.5415 2.40863H13.058V11.214ZM13.058 13.3593H6.45993C2.89841 13.3593 0.00143831 10.4222 0.00143831 6.81134C0.00143831 3.2005 2.89841 0.261963 6.45993 0.261963H13.0594V13.3593H13.058ZM6.45993 2.40717C4.06497 2.40717 2.11735 4.38321 2.11735 6.80988C2.11735 9.23655 4.06497 11.214 6.45993 11.214H10.9435V2.40717H6.45993ZM13.058 24.3099H6.45993C2.89841 24.3099 0.00143831 21.3728 0.00143831 17.762C0.00143831 14.1511 2.89841 11.214 6.45993 11.214H13.0594V24.3099H13.058ZM6.45993 13.3593C4.06497 13.3593 2.11735 15.3353 2.11735 17.762C2.11735 20.1886 4.06641 22.1647 6.45993 22.1647H10.9435V13.3593H6.45993ZM6.49446 35.262C2.91423 35.262 0 32.3249 0 28.714C0 25.1032 2.89697 22.1661 6.4585 22.1661H13.058V28.6426C13.058 32.2928 10.1135 35.262 6.49446 35.262ZM6.45993 24.3099C5.30868 24.3114 4.20501 24.7758 3.39095 25.6011C2.57688 26.4264 2.11887 27.5454 2.11735 28.7126C2.11735 31.1407 4.08079 33.1153 6.4959 33.1153C8.9484 33.1153 10.9449 31.1086 10.9449 28.6411V24.3099H6.45993ZM17.5415 24.3099H17.4005C13.839 24.3099 10.942 21.3728 10.942 17.762C10.942 14.1511 13.839 11.214 17.4005 11.214H17.5415C21.103 11.214 24 14.1511 24 17.762C24 21.3728 21.103 24.3099 17.5415 24.3099ZM17.402 13.3593C15.007 13.3593 13.0594 15.3353 13.0594 17.762C13.0594 20.1886 15.0085 22.1647 17.402 22.1647H17.5429C19.9379 22.1647 21.8855 20.1886 21.8855 17.762C21.8855 15.3353 19.935 13.3593 17.5415 13.3593H17.402Z" fill="#152C40"/>
</svg>
