<svg width="35" height="35" viewBox="0 0 35 35" fill="none" xmlns="http://www.w3.org/2000/svg">
<path d="M17.5 0C7.83535 0 0 7.83535 0 17.5C0 27.1646 7.83535 35 17.5 35C27.1646 35 35 27.1646 35 17.5C35 7.83535 27.1646 0 17.5 0ZM11.7722 2.84437C10.0678 4.6982 8.71794 7.36463 7.8925 10.5001H3.40081C5.13919 7.02331 8.12581 4.2741 11.7722 2.84437ZM1.75 17.5C1.75 15.6544 2.09706 13.8956 2.68393 12.25H7.50285C7.18785 13.9107 7 15.6654 7 17.5C7 19.3346 7.18785 21.0893 7.50224 22.75H2.68393C2.09706 21.1044 1.75 19.3457 1.75 17.5ZM3.40081 24.5H7.8925C8.71849 27.6354 10.0678 30.3018 11.7722 32.1556C8.12581 30.7259 5.13919 27.9767 3.40081 24.5ZM16.625 33.1671C13.6302 32.603 11.0279 29.1859 9.69616 24.5H16.625V33.1671ZM16.625 22.75H9.2791C8.9425 21.098 8.75 19.3322 8.75 17.5C8.75 15.6678 8.9425 13.902 9.2791 12.25H16.625V22.75ZM16.625 10.5H9.69616C11.0279 5.8141 13.6302 2.39688 16.625 1.83285V10.5ZM31.5992 10.5H27.1075C26.2815 7.36456 24.9322 4.69813 23.2278 2.8443C26.8742 4.2741 29.8608 7.02331 31.5992 10.5ZM18.375 1.83285C21.3698 2.39695 23.9721 5.8141 25.3038 10.5H18.375V1.83285ZM18.375 12.25H25.7209C26.0575 13.902 26.25 15.6678 26.25 17.5C26.25 19.3322 26.0575 21.098 25.7209 22.75H18.375V12.25ZM18.375 33.1671V24.5H25.3038C23.9721 29.1859 21.3698 32.6031 18.375 33.1671ZM23.2278 32.1556C24.9322 30.3012 26.2815 27.6354 27.1075 24.5H31.5992C29.8608 27.9767 26.8742 30.7259 23.2278 32.1556ZM27.4971 22.75C27.8121 21.0893 28 19.3346 28 17.5C28 15.6654 27.8121 13.9107 27.4978 12.25H32.3167C32.9029 13.8956 33.25 15.6544 33.25 17.5C33.25 19.3457 32.9029 21.1044 32.3161 22.75H27.4971Z" fill="#152C40"/>
</svg>
